<svg width="10" height="11" viewBox="0 0 10 11" fill="none" xmlns="http://www.w3.org/2000/svg">
<path fill-rule="evenodd" clip-rule="evenodd" d="M4.99967 0.916992C5.30909 0.916992 5.60584 1.03991 5.82463 1.2587C6.04343 1.47749 6.16634 1.77424 6.16634 2.08366V4.41699H8.49967C8.80909 4.41699 9.10584 4.53991 9.32463 4.7587C9.54342 4.97749 9.66634 5.27424 9.66634 5.58366C9.66634 5.89308 9.54342 6.18982 9.32463 6.40862C9.10584 6.62741 8.80909 6.75033 8.49967 6.75033H6.16634V9.08366C6.16634 9.39308 6.04343 9.68982 5.82463 9.90862C5.60584 10.1274 5.30909 10.2503 4.99967 10.2503C4.69026 10.2503 4.39351 10.1274 4.17472 9.90862C3.95592 9.68982 3.83301 9.39308 3.83301 9.08366V6.75033H1.49967C1.19026 6.75033 0.893509 6.62741 0.674717 6.40862C0.455924 6.18982 0.333008 5.89308 0.333008 5.58366C0.333008 5.27424 0.455924 4.97749 0.674717 4.7587C0.893509 4.53991 1.19026 4.41699 1.49967 4.41699H3.83301V2.08366C3.83301 1.77424 3.95592 1.47749 4.17472 1.2587C4.39351 1.03991 4.69026 0.916992 4.99967 0.916992Z" fill="#BBC3C2"/>
</svg>
