<svg width="10" height="18" viewBox="0 0 10 18" fill="none" xmlns="http://www.w3.org/2000/svg">
<path fill-rule="evenodd" clip-rule="evenodd" d="M0.488012 17.4723C0.175538 17.1344 0 16.676 0 16.1981C0 15.7202 0.175538 15.2619 0.488012 14.9239L5.97674 8.98912L0.488012 3.0543C0.184394 2.71439 0.0163907 2.25914 0.0201883 1.78659C0.023986 1.31405 0.19928 0.862021 0.508316 0.527868C0.817352 0.193716 1.2354 0.00417442 1.67243 6.81296e-05C2.10945 -0.00403816 2.53049 0.17762 2.84485 0.505915L9.51199 7.71493C9.82446 8.0529 10 8.51123 10 8.98912C10 9.46701 9.82446 9.92534 9.51199 10.2633L2.84485 17.4723C2.53228 17.8102 2.1084 18 1.66643 18C1.22446 18 0.800581 17.8102 0.488012 17.4723Z" fill="#BBC3C2"/>
</svg>
