<svg width="20" height="18" viewBox="0 0 20 18" fill="none" xmlns="http://www.w3.org/2000/svg">
<path d="M14.7129 1.09277C15.5512 1.03185 16.4564 1.25951 17.3506 2.16602C18.4227 3.25298 18.7822 4.58446 18.6357 6.05664C18.4861 7.56026 17.8048 9.1931 16.8018 10.7285C15.803 12.2572 14.5262 13.6266 13.2705 14.6045C11.9716 15.6159 10.8559 16.084 10.167 16.084C9.47809 16.084 8.3624 15.6159 7.06348 14.6045C5.8078 13.6266 4.53097 12.2572 3.53223 10.7285C2.52914 9.1931 1.84788 7.56026 1.69824 6.05664C1.55173 4.58447 1.91126 3.25298 2.9834 2.16602C3.87757 1.25952 4.7828 1.03185 5.62109 1.09277C6.50872 1.15737 7.38691 1.55365 8.11328 2.01172C9.33756 2.78373 10.9964 2.78374 12.2207 2.01172C12.9471 1.55364 13.8253 1.15737 14.7129 1.09277Z" stroke="#BBC3C2" stroke-width="2" stroke-linecap="round"/>
</svg>
