<svg width="44" height="44" viewBox="0 0 44 44" fill="none" xmlns="http://www.w3.org/2000/svg">
<path d="M26.1077 16.385C24.6487 15.5531 23.5154 14.9069 22.595 14.4877C21.6712 14.0669 20.8692 13.8293 20.0894 13.9102C18.8519 14.0387 17.7252 14.6799 16.991 15.6779C16.5273 16.3083 16.3342 17.1174 16.2411 18.1191C16.1484 19.1167 16.1484 20.4098 16.1484 22.0727V22.142C16.1484 23.8049 16.1484 25.098 16.2411 26.0956C16.3342 27.0973 16.5273 27.9064 16.991 28.5368C17.7252 29.5348 18.8519 30.176 20.0894 30.3045C20.8692 30.3854 21.6712 30.1478 22.595 29.727C23.5154 29.3078 24.6487 28.6616 26.1076 27.8298L26.1669 27.796C27.6258 26.9642 28.7591 26.318 29.587 25.7403C30.4172 25.161 31.0293 24.5925 31.3502 23.8807C31.859 22.7521 31.859 21.4626 31.3502 20.334C31.0293 19.6222 30.4172 19.0537 29.587 18.4744C28.7591 17.8967 27.6258 17.2505 26.1669 16.4187L26.1077 16.385Z" />
<circle cx="22" cy="22" r="22" fill="#57EBDD" fill-opacity="0.25"/>
</svg>
