<svg width="19" height="14" viewBox="0 0 19 14" fill="none" xmlns="http://www.w3.org/2000/svg">
<path fill-rule="evenodd" clip-rule="evenodd" d="M0 1.16667C0 0.857247 0.122916 0.560501 0.341709 0.341709C0.560501 0.122917 0.857247 0 1.16667 0L9.91667 0C10.2261 0 10.5228 0.122917 10.7416 0.341709C10.9604 0.560501 11.0833 0.857247 11.0833 1.16667C11.0833 1.47609 10.9604 1.77283 10.7416 1.99162C10.5228 2.21042 10.2261 2.33333 9.91667 2.33333H1.16667C0.857247 2.33333 0.560501 2.21042 0.341709 1.99162C0.122916 1.77283 0 1.47609 0 1.16667ZM0 7C0 6.69058 0.122916 6.39383 0.341709 6.17504C0.560501 5.95625 0.857247 5.83333 1.16667 5.83333H5.83333C6.14275 5.83333 6.4395 5.95625 6.65829 6.17504C6.87708 6.39383 7 6.69058 7 7C7 7.30942 6.87708 7.60616 6.65829 7.82496C6.4395 8.04375 6.14275 8.16667 5.83333 8.16667H1.16667C0.857247 8.16667 0.560501 8.04375 0.341709 7.82496C0.122916 7.60616 0 7.30942 0 7ZM0 12.8333C0 12.5239 0.122916 12.2272 0.341709 12.0084C0.560501 11.7896 0.857247 11.6667 1.16667 11.6667H9.67504C9.98446 11.6667 10.2812 11.7896 10.5 12.0084C10.7188 12.2272 10.8417 12.5239 10.8417 12.8333C10.8417 13.1428 10.7188 13.4395 10.5 13.6583C10.2812 13.8771 9.98446 14 9.67504 14H1.16667C0.857247 14 0.560501 13.8771 0.341709 13.6583C0.122916 13.4395 0 13.1428 0 12.8333Z" fill="#BBC3C2"/>
<path fill-rule="evenodd" clip-rule="evenodd" d="M13.9997 2.33398C14.3091 2.33398 14.6058 2.4569 14.8246 2.67569C15.0434 2.89449 15.1663 3.19123 15.1663 3.50065V5.83398H17.4997C17.8091 5.83398 18.1058 5.9569 18.3246 6.17569C18.5434 6.39449 18.6663 6.69123 18.6663 7.00065C18.6663 7.31007 18.5434 7.60682 18.3246 7.82561C18.1058 8.0444 17.8091 8.16732 17.4997 8.16732H15.1663V10.5007C15.1663 10.8101 15.0434 11.1068 14.8246 11.3256C14.6058 11.5444 14.3091 11.6673 13.9997 11.6673C13.6903 11.6673 13.3935 11.5444 13.1747 11.3256C12.9559 11.1068 12.833 10.8101 12.833 10.5007V8.16732H10.4997C10.1903 8.16732 9.89351 8.0444 9.67472 7.82561C9.45592 7.60682 9.33301 7.31007 9.33301 7.00065C9.33301 6.69123 9.45592 6.39449 9.67472 6.17569C9.89351 5.9569 10.1903 5.83398 10.4997 5.83398H12.833V3.50065C12.833 3.19123 12.9559 2.89449 13.1747 2.67569C13.3935 2.4569 13.6903 2.33398 13.9997 2.33398Z" fill="#BBC3C2"/>
</svg>
