<svg width="24" height="25" viewBox="0 0 24 25" fill="none" xmlns="http://www.w3.org/2000/svg">
<path fill-rule="evenodd" clip-rule="evenodd" d="M10.458 0.759766C4.84887 0.759766 0.301758 5.30687 0.301758 10.916C0.301758 16.5252 4.84887 21.0723 10.458 21.0723C16.0671 21.0723 20.6143 16.5252 20.6143 10.916C20.6143 5.30687 16.0671 0.759766 10.458 0.759766ZM1.86426 10.916C1.86426 6.16982 5.71181 2.32227 10.458 2.32227C15.2042 2.32227 19.0518 6.16982 19.0518 10.916C19.0518 15.6622 15.2042 19.5098 10.458 19.5098C5.71181 19.5098 1.86426 15.6622 1.86426 10.916Z" />
<path d="M19.3438 18.697C19.0387 18.3919 18.5441 18.3919 18.239 18.697C17.9339 19.0021 17.9339 19.4968 18.239 19.8019L22.4055 23.9685C22.7106 24.2736 23.2053 24.2736 23.5104 23.9685C23.8155 23.6634 23.8155 23.1687 23.5104 22.8636L19.3438 18.697Z" />
</svg>
