<svg width="25" height="25" viewBox="0 0 25 25" fill="none" xmlns="http://www.w3.org/2000/svg">
<path d="M24.167 1.56156C24.1669 1.33048 24.1175 1.1023 24.0225 0.893478C23.9276 0.684652 23.7893 0.500371 23.6177 0.353912C23.4461 0.207454 23.2455 0.102463 23.0302 0.0465052C22.815 -0.00945283 22.5905 -0.0149852 22.373 0.0303065L7.37299 3.15531C7.03308 3.22608 6.72718 3.4173 6.50732 3.69646C6.28746 3.97561 6.1672 4.32547 6.16699 4.68656V18.9272C5.67525 18.8078 5.17191 18.748 4.66699 18.7491C2.18149 18.7491 0.166992 20.1475 0.166992 21.8741C0.166992 23.6006 2.18149 24.9991 4.66699 24.9991C7.15249 24.9991 9.16699 23.6006 9.16699 21.8741V9.09281L21.167 6.59281V15.8022C20.6752 15.6828 20.1719 15.6231 19.667 15.6241C17.1815 15.6241 15.167 17.0225 15.167 18.7491C15.167 20.4756 17.1815 21.8741 19.667 21.8741C22.1525 21.8741 24.167 20.4756 24.167 18.7491V1.56156Z"/>
</svg>
